<svg xmlns="http://www.w3.org/2000/svg" xmlns:xlink="http://www.w3.org/1999/xlink" width="73.478" height="87.129" viewBox="0 0 73.478 87.129"><defs><path id="a" d="M-14.272-13.996h102v115h-102z"/></defs><clipPath id="b"><use xlink:href="#a" overflow="visible"/></clipPath><path clip-path="url(#b)" fill="#1E0000" d="M36.728-.122c-14.406 0-26.283 2.74-36.75 8.288v42.832c0 9.15 3.442 16.808 9.954 22.146 5.872 4.812 24.665 13.058 26.796 13.984 2.13-.927 20.924-9.172 26.796-13.984 6.512-5.34 9.954-12.997 9.954-22.146V8.168c-10.467-5.55-22.344-8.29-36.75-8.29"/><defs><path id="c" d="M.728 8.618v42.38c0 8.916 3.347 16.375 9.68 21.565 5.793 4.75 24.205 12.83 26.32 13.748 2.114-.918 20.527-8.998 26.32-13.747 6.333-5.19 9.68-12.65 9.68-21.565V8.618c-10-5.303-22.113-7.99-36-7.99S10.73 3.316.728 8.62"/></defs><clipPath id="d"><use xlink:href="#c" overflow="visible"/></clipPath><radialGradient id="e" cx="-14.272" cy="101.004" r="1" gradientTransform="matrix(0 119.608 59.804 0 -6028.71 1722.482)" gradientUnits="userSpaceOnUse"><stop offset="0" stop-color="#FFDC00"/><stop offset=".35" stop-color="#FFBE00"/><stop offset="1" stop-color="#C86E14"/></radialGradient><path clip-path="url(#d)" fill="url(#e)" d="M.728.63h72V86.31h-72z"/><defs><path id="f" d="M-14.272-13.996h102v115h-102z"/></defs><clipPath id="g"><use xlink:href="#f" overflow="visible"/></clipPath><path clip-path="url(#g)" fill="#C86E14" d="M59.708 81.447v3.677h.664V83.59h.095c.05.074 1 1.534 1 1.534h.803l-1.107-1.62c.486-.114.814-.467.814-.977 0-.522-.322-1.08-1.225-1.08h-1.044zm.967.537c.563 0 .638.276.638.516 0 .347-.148.577-.86.577h-.08v-1.093h.302zm2.597 1.312c0 1.368-1.114 2.484-2.493 2.484-1.373 0-2.49-1.116-2.49-2.484 0-1.372 1.117-2.495 2.49-2.495 1.378 0 2.492 1.124 2.492 2.496m-2.495-3.028c-1.665 0-3.02 1.363-3.02 3.028s1.355 3.02 3.02 3.02c1.675 0 3.026-1.355 3.026-3.02s-1.35-3.028-3.026-3.028"/><defs><path id="h" d="M35.49 33.65v19.244c.448.167 1.183.378 2.032.378 3.606 0 5.326-3.308 5.326-10.155 0-7.017-1.505-9.918-5.14-9.918-.85 0-1.71.2-2.218.45M19.757 52.396V28.79h6.252v27.17c-2.393 1.626-5.604 2.516-9.437 2.516-6.198 0-9.34-3.362-9.34-10V28.79h6.26v19.965c0 1.777.43 4.407 3.3 4.407 1.273 0 2.283-.297 2.964-.766m9.466-22.013c2.272-1.466 5.027-2.228 8.443-2.228 7.476 0 11.584 5.672 11.584 14.803 0 9.148-3.99 15.41-10.942 15.41-1.285 0-2.193-.17-2.818-.355V71.2h-6.267V30.384zm31.46 19.44c-.046-1.967-1.157-3.033-3.91-4.65-5.166-3.032-6.094-5.524-6.103-8.856-.027-5.06 4.282-8.042 8.403-8.162 3.44-.105 5.77 1.187 6.872 2.034v5.446c-1.305-1.34-3.422-2.554-5.61-2.574-1.774-.016-3.622.765-3.684 2.993-.06 2.278 1.783 3.18 4.12 4.548 5.232 3.076 6.244 5.84 6.124 9.494-.12 4.004-2.88 8.38-9.068 8.38-2.476 0-4.924-.774-6.885-1.945v-5.767c1.6 1.425 3.99 2.534 5.988 2.548h.025c2.284 0 3.784-1.313 3.73-3.49M4.037 26.76V51c0 7.896 2.92 14.49 8.468 19.01C17.402 74 32.477 80.82 36.728 82.7c4.196-1.85 19.233-8.586 24.217-12.69C66.53 65.41 69.42 58.97 69.42 51V9.51c-4.446-.414-9.064-.686-13.77-.686-17.447 0-36.15 3.75-51.614 17.934"/></defs><clipPath id="i"><use xlink:href="#h" overflow="visible"/></clipPath><radialGradient id="j" cx="-14.272" cy="101.004" r="1" gradientTransform="matrix(0 118.6833 59.3417 0 -5981.98 1709.35)" gradientUnits="userSpaceOnUse"><stop offset="0" stop-color="#4B3333"/><stop offset=".35" stop-color="#351A1A"/><stop offset=".85" stop-color="#1E0000"/><stop offset="1" stop-color="#1E0000"/></radialGradient><path clip-path="url(#i)" fill="url(#j)" d="M4.036 8.824H69.42V82.7H4.036z"/><defs><path id="k" d="M4.036 51c0 7.896 2.92 14.49 8.468 19.01C17.402 74 32.477 80.82 36.728 82.7v-.493c-3.53-1.562-18.982-8.505-23.94-12.546C7.357 65.236 4.485 58.783 4.485 51h-.45z"/></defs><clipPath id="l"><use xlink:href="#k" overflow="visible"/></clipPath><linearGradient id="m" gradientUnits="userSpaceOnUse" x1="-14.273" y1="100.922" x2="-13.273" y2="100.922" gradientTransform="scale(45.5362) rotate(-136 14.022 -52.6)"><stop offset="0" stop-color="#E49F15"/><stop offset=".024" stop-color="#E39C15"/><stop offset=".178" stop-color="#DC9116"/><stop offset=".396" stop-color="#D88A17"/><stop offset="1" stop-color="#D78817"/></linearGradient><path clip-path="url(#l)" fill="url(#m)" d="M20.953 99.035l-32.757-31.633 31.616-32.738 32.756 31.632"/><defs><path id="n" d="M68.97 51c0 7.84-2.796 14.12-8.312 18.662-4.796 3.95-19.294 10.5-23.93 12.545v.492c4.195-1.85 19.232-8.586 24.216-12.69C66.53 65.41 69.42 58.97 69.42 51h-.45z"/></defs><clipPath id="o"><use xlink:href="#n" overflow="visible"/></clipPath><linearGradient id="p" gradientUnits="userSpaceOnUse" x1="-14.272" y1="101.086" x2="-13.272" y2="101.086" gradientTransform="scale(45.5362) rotate(-44 120.612 -68.294)"><stop offset="0" stop-color="#FFC20E"/><stop offset="1" stop-color="#D89016"/></linearGradient><path clip-path="url(#o)" fill="url(#p)" d="M20.888 66.296l32.756-31.632L85.26 67.402 52.503 99.035"/><defs><path id="q" d="M4.036 26.758l.45.198C17.536 15.06 34.273 9.274 55.65 9.274c4.174 0 8.536.212 13.32.646l.45-.41c-4.446-.414-9.064-.686-13.77-.686-17.447 0-36.15 3.75-51.614 17.934"/></defs><clipPath id="r"><use xlink:href="#q" overflow="visible"/></clipPath><linearGradient id="s" gradientUnits="userSpaceOnUse" x1="-14.272" y1="100.969" x2="-13.272" y2="100.969" gradientTransform="scale(67.419) rotate(-19.2 292.655 -92.672)"><stop offset="0" stop-color="#E49F15"/><stop offset=".975" stop-color="#8F4A02"/><stop offset="1" stop-color="#8F4A02"/></linearGradient><path clip-path="url(#r)" fill="url(#s)" d="M-1.595 10.785l63.943-22.267L75.05 24.995 11.108 47.263"/><defs><path id="t" d="M42.398 43.117c0 5.535-1.09 9.706-4.876 9.706v.45c3.606 0 5.326-3.31 5.326-10.156h-.45z"/></defs><clipPath id="u"><use xlink:href="#t" overflow="visible"/></clipPath><linearGradient id="v" gradientUnits="userSpaceOnUse" x1="-14.271" y1="101.094" x2="-13.271" y2="101.094" gradientTransform="scale(11.4647) rotate(-63.3 80.28 -62.46)"><stop offset="0" stop-color="#FFC20E"/><stop offset=".05" stop-color="#FFC20E"/><stop offset=".95" stop-color="#BF7312"/><stop offset="1" stop-color="#BF7312"/></linearGradient><path clip-path="url(#u)" fill="url(#v)" d="M33.446 51.222l5.15-10.243 8.328 4.187-5.15 10.243"/><defs><path id="w" d="M35.49 52.894c.448.167 1.183.378 2.032.378v-.45c-.616 0-1.168-.12-1.582-.25l-.45.322z"/></defs><clipPath id="x"><use xlink:href="#w" overflow="visible"/></clipPath><linearGradient id="y" gradientUnits="userSpaceOnUse" x1="-14.272" y1="101.008" x2="-13.272" y2="101.008" gradientTransform="scale(2.064) rotate(-173 5.836 -38.644)"><stop offset="0" stop-color="#FFC20E"/><stop offset=".05" stop-color="#FFC20E"/><stop offset=".95" stop-color="#F0AF13"/><stop offset="1" stop-color="#F0AF13"/></linearGradient><path clip-path="url(#x)" fill="url(#y)" d="M37.492 53.518l-2.087-.256.115-.936 2.087.256"/><g><defs><path id="z" d="M35.49 33.65l.45.297c.436-.16 1.086-.298 1.77-.298v-.45c-.85 0-1.712.2-2.22.45"/></defs><clipPath id="A"><use xlink:href="#z" overflow="visible"/></clipPath><linearGradient id="B" gradientUnits="userSpaceOnUse" x1="-14.272" y1="101.022" x2="-13.272" y2="101.022" gradientTransform="scale(2.26) rotate(-14.7 450.378 -159.307)"><stop offset="0" stop-color="#A65E0C"/><stop offset=".05" stop-color="#A65E0C"/><stop offset=".95" stop-color="#8F4A02"/><stop offset="1" stop-color="#8F4A02"/></linearGradient><path clip-path="url(#A)" fill="url(#B)" d="M35.307 33.247l2.258-.593.327 1.245-2.26.59"/></g><g><defs><path id="C" d="M37.708 33.65c3.692 0 4.69 3.45 4.69 9.467h.45c0-7.017-1.506-9.918-5.14-9.918v.45z"/></defs><clipPath id="D"><use xlink:href="#C" overflow="visible"/></clipPath><linearGradient id="E" gradientUnits="userSpaceOnUse" x1="-14.272" y1="101.095" x2="-13.272" y2="101.095" gradientTransform="scale(11.171) rotate(-116.9 27.002 -54.175)"><stop offset="0" stop-color="#BF7312"/><stop offset=".05" stop-color="#BF7312"/><stop offset=".95" stop-color="#8F4A02"/><stop offset="1" stop-color="#8F4A02"/></linearGradient><path clip-path="url(#D)" fill="url(#E)" d="M38.76 45.19l-5.053-9.96 8.088-4.105 5.055 9.962"/></g><g><defs><path id="F" d="M50.22 36.32l.45-.003c-.027-5.06 4.282-8.042 8.403-8.162l-.014-.45c-4.554.133-8.867 3.465-8.84 8.614"/></defs><clipPath id="G"><use xlink:href="#F" overflow="visible"/></clipPath><linearGradient id="H" gradientUnits="userSpaceOnUse" x1="-14.273" y1="101.086" x2="-13.273" y2="101.086" gradientTransform="scale(12.334) rotate(137.9 -24.622 -45.742)"><stop offset="0" stop-color="#FFC20E"/><stop offset=".05" stop-color="#FFC20E"/><stop offset=".95" stop-color="#D89016"/><stop offset="1" stop-color="#D89016"/></linearGradient><path clip-path="url(#G)" fill="url(#H)" d="M63.36 32.447l-9.175 8.29-8.277-9.16 9.175-8.29"/></g><g><defs><path id="I" d="M56.652 36.055l.45.01c.016-.6.294-2.554 3.172-2.554l.062-.448h-.055c-1.756 0-3.568.788-3.628 2.993"/></defs><clipPath id="J"><use xlink:href="#I" overflow="visible"/></clipPath><linearGradient id="K" gradientUnits="userSpaceOnUse" x1="-14.272" y1="100.93" x2="-13.272" y2="100.93" gradientTransform="scale(4.7434) rotate(-41 143.997 -81.73)"><stop offset="0" stop-color="#D78817"/><stop offset=".05" stop-color="#D78817"/><stop offset=".95" stop-color="#8F4A02"/><stop offset="1" stop-color="#8F4A02"/></linearGradient><path clip-path="url(#J)" fill="url(#K)" d="M55.165 34.355l3.585-3.117 3.073 3.535-3.586 3.117"/></g><g><defs><path id="L" d="M60.274 33.51c2.59 0 4.802 1.685 6.122 3.233l-.45-1.107c-1.305-1.34-3.422-2.554-5.61-2.574l-.062.45z"/></defs><clipPath id="M"><use xlink:href="#L" overflow="visible"/></clipPath><linearGradient id="N" gradientUnits="userSpaceOnUse" x1="-14.272" y1="101.059" x2="-13.272" y2="101.059" gradientTransform="scale(7.0756) rotate(-152.5 10.56 -50.843)"><stop offset="0" stop-color="#BF7312"/><stop offset=".95" stop-color="#8F4A02"/><stop offset="1" stop-color="#8F4A02"/></linearGradient><path clip-path="url(#M)" fill="url(#N)" d="M65.09 39.25l-6.324-3.292 2.814-5.403 6.324 3.292"/></g><g><defs><path id="O" d="M59.06 27.705l.014.45c3.44-.105 5.77 1.187 6.872 2.034l.45-.222c-.944-.765-3.345-2.27-6.94-2.27-.13 0-.263.003-.396.007"/></defs><clipPath id="P"><use xlink:href="#O" overflow="visible"/></clipPath><linearGradient id="Q" gradientUnits="userSpaceOnUse" x1="-14.273" y1="100.978" x2="-13.273" y2="100.978" gradientTransform="scale(7.6762) rotate(17.9 -335.356 21.048)"><stop offset="0" stop-color="#FFC20E"/><stop offset=".05" stop-color="#FFC20E"/><stop offset=".95" stop-color="#E49F15"/><stop offset="1" stop-color="#E49F15"/></linearGradient><path clip-path="url(#P)" fill="url(#Q)" d="M59.753 25.553l7.372 2.38-1.422 4.4-7.37-2.38"/></g><g><defs><path id="R" d="M57.827 58.476v.45c5.677 0 9.367-3.78 9.52-8.813l-.45-.016c-.12 4.004-2.883 8.38-9.07 8.38"/></defs><clipPath id="S"><use xlink:href="#R" overflow="visible"/></clipPath><linearGradient id="T" gradientUnits="userSpaceOnUse" x1="-14.273" y1="100.915" x2="-13.272" y2="100.915" gradientTransform="matrix(-9.265 9.073 9.073 9.265 -980.627 -755.523)"><stop offset="0" stop-color="#D78817"/><stop offset=".05" stop-color="#D78817"/><stop offset=".95" stop-color="#8F4A02"/><stop offset="1" stop-color="#8F4A02"/></linearGradient><path clip-path="url(#S)" fill="url(#T)" d="M71.758 54.604l-9.27 9.08-9.074-9.265 9.272-9.08"/></g><g><defs><path id="U" d="M50.492 56.787c2.24 1.337 4.646 2.14 7.335 2.14v-.45c-2.476 0-4.924-.774-6.885-1.945l-.45.255z"/></defs><clipPath id="V"><use xlink:href="#U" overflow="visible"/></clipPath><linearGradient id="W" gradientUnits="userSpaceOnUse" x1="-14.272" y1="101.027" x2="-13.272" y2="101.027" gradientTransform="matrix(7.341 2.119 2.119 -7.341 -58.774 828.564)"><stop offset="0" stop-color="#BF7312"/><stop offset=".95" stop-color="#8F4A02"/><stop offset="1" stop-color="#8F4A02"/></linearGradient><path clip-path="url(#V)" fill="url(#W)" d="M51.056 54.576l7.41 2.14-1.203 4.164-7.41-2.138"/></g><g><defs><path id="X" d="M50.942 50.765c1.598 1.425 3.99 2.534 5.987 2.548l.002-.45c-2.23-.016-4.806-1.45-6.44-3.102l.45 1.005z"/></defs><clipPath id="Y"><use xlink:href="#X" overflow="visible"/></clipPath><linearGradient id="Z" gradientUnits="userSpaceOnUse" x1="-14.273" y1="100.957" x2="-13.273" y2="100.957" gradientTransform="scale(7.3418) rotate(-154.1 9.186 -49.393)"><stop offset="0" stop-color="#FFC20E"/><stop offset=".05" stop-color="#FFC20E"/><stop offset="1" stop-color="#F0AF13"/></linearGradient><path clip-path="url(#Y)" fill="url(#Z)" d="M55.704 55.844l-6.608-3.21 2.625-5.404 6.608 3.208"/></g><g><defs><path id="aa" d="M60.234 49.835c.05 1.998-1.348 3.042-3.302 3.028l-.003.45c2.296.01 3.808-1.306 3.754-3.49l-.45.012z"/></defs><clipPath id="ab"><use xlink:href="#aa" overflow="visible"/></clipPath><linearGradient id="ac" gradientUnits="userSpaceOnUse" x1="-14.273" y1="101.085" x2="-13.273" y2="101.085" gradientTransform="scale(5.1262) rotate(-42.6 141.392 -77.888)"><stop offset="0" stop-color="#FFC20E"/><stop offset=".05" stop-color="#FFC20E"/><stop offset=".95" stop-color="#D89016"/><stop offset="1" stop-color="#D89016"/></linearGradient><path clip-path="url(#ab)" fill="url(#ac)" d="M55.186 51.427l3.807-3.5 3.488 3.793-3.806 3.5"/></g><g><defs><path id="ad" d="M50.22 36.32c.01 3.508 1.048 6.144 6.324 9.24 2.822 1.658 3.65 2.617 3.69 4.275l.45-.01c-.048-1.97-1.16-3.035-3.913-4.653-5.164-3.03-6.092-5.523-6.1-8.855l-.45.002z"/></defs><clipPath id="ae"><use xlink:href="#ad" overflow="visible"/></clipPath><linearGradient id="af" gradientUnits="userSpaceOnUse" x1="-14.273" y1="101.036" x2="-13.271" y2="101.036" gradientTransform="scale(17.0604) rotate(55.2 -104.308 -32.975)"><stop offset="0" stop-color="#D89016"/><stop offset=".4" stop-color="#BF7312"/><stop offset=".6" stop-color="#BF7312"/><stop offset="1" stop-color="#D89016"/></linearGradient><path clip-path="url(#ae)" fill="url(#af)" d="M57.276 31.413l9.743 14.02-13.392 9.305-9.743-14.018"/></g><g><defs><path id="ag" d="M60.772 40.603c5.23 3.076 6.243 5.84 6.123 9.494l.45.016c.123-3.734-.896-6.693-6.346-9.897-2.214-1.342-3.954-2.073-3.898-4.15l-.45-.01c-.062 2.277 1.782 3.178 4.12 4.547"/></defs><clipPath id="ah"><use xlink:href="#ag" overflow="visible"/></clipPath><linearGradient id="ai" gradientUnits="userSpaceOnUse" x1="-14.272" y1="100.962" x2="-13.272" y2="100.962" gradientTransform="scale(17.6596) rotate(53.8 -107.037 -32.227)"><stop offset="0" stop-color="#D78817"/><stop offset=".4" stop-color="#E49F15"/><stop offset=".6" stop-color="#E49F15"/><stop offset="1" stop-color="#D78817"/></linearGradient><path clip-path="url(#ah)" fill="url(#ai)" d="M63.673 30.87l10.494 14.34-13.783 10.086L49.89 40.958"/></g><g><defs><path id="aj" d="M-14.272-13.996h102v115h-102z"/></defs><clipPath id="ak"><use xlink:href="#aj" overflow="visible"/></clipPath><path clip-path="url(#ak)" fill="#8F4A02" d="M35.49 71.2h-6.266l-.45.45h7.165"/></g><g><defs><path id="al" d="M35.94 58.59c.707.152 1.5.23 2.368.23v-.45c-1.285 0-2.193-.172-2.818-.356l.45.577z"/></defs><clipPath id="am"><use xlink:href="#al" overflow="visible"/></clipPath><linearGradient id="an" gradientUnits="userSpaceOnUse" x1="-14.272" y1="101.016" x2="-13.271" y2="101.016" gradientTransform="matrix(2.874 .445 .445 -2.874 31.535 354.878)"><stop offset="0" stop-color="#A65E0C"/><stop offset=".05" stop-color="#A65E0C"/><stop offset=".95" stop-color="#8F4A02"/><stop offset="1" stop-color="#8F4A02"/></linearGradient><path clip-path="url(#am)" fill="url(#an)" d="M35.556 57.587l2.874.445-.188 1.213-2.874-.445"/></g><g><defs><path id="ao" d="M49.25 42.958c0 9.148-3.99 15.41-10.942 15.41v.45c8.07 0 11.392-7.71 11.392-15.86h-.45z"/></defs><clipPath id="ap"><use xlink:href="#ao" overflow="visible"/></clipPath><linearGradient id="aq" gradientUnits="userSpaceOnUse" x1="-14.272" y1="100.903" x2="-13.272" y2="100.903" gradientTransform="scale(19.5286) rotate(125.6 -32.358 -45.03)"><stop offset="0" stop-color="#A65E0C"/><stop offset=".05" stop-color="#A65E0C"/><stop offset=".95" stop-color="#8F4A02"/><stop offset="1" stop-color="#8F4A02"/></linearGradient><path clip-path="url(#ap)" fill="url(#aq)" d="M57.208 48.333L45.838 64.21 30.802 53.445 42.17 37.566"/></g><g><defs><path id="ar" d="M28.773 30.137l.45.246c2.272-1.466 5.027-2.228 8.443-2.228v-.45c-3.47 0-6.49.795-8.893 2.432"/></defs><clipPath id="as"><use xlink:href="#ar" overflow="visible"/></clipPath><linearGradient id="at" gradientUnits="userSpaceOnUse" x1="-14.273" y1="101.033" x2="-13.273" y2="101.033" gradientTransform="scale(9.218) rotate(165.5 -11.71 -47.836)"><stop offset="0" stop-color="#FFC20E"/><stop offset=".05" stop-color="#FFC20E"/><stop offset=".95" stop-color="#F0AF13"/><stop offset="1" stop-color="#F0AF13"/></linearGradient><path clip-path="url(#as)" fill="url(#at)" d="M38.315 30.215L29.33 32.54l-1.206-4.667 8.985-2.324"/></g><g><defs><path id="au" d="M37.667 28.155c7.476 0 11.584 5.672 11.584 14.803h.45c0-8.078-3.38-15.253-12.033-15.253v.45z"/></defs><clipPath id="av"><use xlink:href="#au" overflow="visible"/></clipPath><linearGradient id="aw" gradientUnits="userSpaceOnUse" x1="-14.271" y1="100.898" x2="-13.271" y2="100.898" gradientTransform="scale(19.428) rotate(51.9 -111.295 -33.08)"><stop offset="0" stop-color="#FFC20E"/><stop offset=".05" stop-color="#FFC20E"/><stop offset=".95" stop-color="#A65E0C"/><stop offset="1" stop-color="#A65E0C"/></linearGradient><path clip-path="url(#av)" fill="url(#aw)" d="M45.12 21.862L57.105 37.15 42.248 48.8 30.26 33.513"/></g><g><defs><path id="ax" d="M-14.272-13.996h102v115h-102z"/></defs><clipPath id="ay"><use xlink:href="#ax" overflow="visible"/></clipPath><path clip-path="url(#ay)" fill="#FFC20E" d="M13.494 28.79H7.232l-.45-.45h7.16l-.448.45zm12.516 0h-6.252l-.45-.45h7.152l-.45.45z"/><path clip-path="url(#ay)" fill="#D78817" d="M4.037 51V26.756l.45.198v24.043h-.45zm62.36-14.257v-6.776l-.45.222v5.445l.45 1.108zM13.942 48.755V28.34l-.45.45v19.964h.45z"/><path clip-path="url(#ay)" fill="#D89016" d="M68.97 51V9.92l.45-.41V51h-.45zm-18.478-1.24v7.026l.45-.255v-5.766l-.45-1.003zm-30.735 2.636V28.79l-.45-.45v23.81l.45.246zm-12.524-3.92V28.79l-.45-.45v20.137h.45z"/></g><g><defs><path id="az" d="M6.783 48.476c0 6.63 3.108 10.45 9.79 10.45v-.45c-6.198 0-9.34-3.362-9.34-10h-.45z"/></defs><clipPath id="aA"><use xlink:href="#az" overflow="visible"/></clipPath><linearGradient id="aB" gradientUnits="userSpaceOnUse" x1="-14.273" y1="101.115" x2="-13.272" y2="101.115" gradientTransform="scale(14.319) rotate(47.1 -126.778 -31.948)"><stop offset="0" stop-color="#D89016"/><stop offset=".05" stop-color="#D89016"/><stop offset=".95" stop-color="#8F4A02"/><stop offset="1" stop-color="#8F4A02"/></linearGradient><path clip-path="url(#aA)" fill="url(#aB)" d="M12.037 43.594l9.747 10.49-10.465 9.724-9.748-10.49"/></g><g><defs><path id="aC" d="M16.573 58.476v.45c4 0 7.232-.924 9.886-2.727l-.45-.24c-2.393 1.626-5.604 2.516-9.437 2.516"/></defs><clipPath id="aD"><use xlink:href="#aC" overflow="visible"/></clipPath><linearGradient id="aE" gradientUnits="userSpaceOnUse" x1="-14.272" y1="100.977" x2="-13.272" y2="100.977" gradientTransform="matrix(-9.928 2.5676 2.5676 9.928 -374.5 -909.682)"><stop offset="0" stop-color="#A65E0C"/><stop offset=".05" stop-color="#A65E0C"/><stop offset=".95" stop-color="#8F4A02"/><stop offset="1" stop-color="#8F4A02"/></linearGradient><path clip-path="url(#aD)" fill="url(#aE)" d="M27.178 58.74l-9.985 2.582-1.34-5.176 9.986-2.582"/></g><g><defs><path id="aF" d="M16.794 52.712v.45c1.272 0 2.282-.297 2.963-.766l-.45-.25c-.636.367-1.517.566-2.513.566"/></defs><clipPath id="aG"><use xlink:href="#aF" overflow="visible"/></clipPath><linearGradient id="aH" gradientUnits="userSpaceOnUse" x1="-14.273" y1="101.012" x2="-13.273" y2="101.012" gradientTransform="matrix(2.9715 -.73 -.73 -2.9715 132.897 342.768)"><stop offset="0" stop-color="#FFC20E"/><stop offset=".05" stop-color="#FFC20E"/><stop offset=".95" stop-color="#F0AF13"/><stop offset="1" stop-color="#F0AF13"/></linearGradient><path clip-path="url(#aG)" fill="url(#aH)" d="M16.56 52.206l3.028-.744.404 1.642-3.03.745"/></g><g><defs><path id="aI" d="M13.493 48.755c0 1.777.43 4.407 3.3 4.407v-.45c-2.207 0-2.85-1.78-2.85-3.957h-.45z"/></defs><clipPath id="aJ"><use xlink:href="#aI" overflow="visible"/></clipPath><linearGradient id="aK" gradientUnits="userSpaceOnUse" x1="-14.272" y1="100.916" x2="-13.272" y2="100.916" gradientTransform="scale(5.506) rotate(-126.2 22.436 -50.022)"><stop offset="0" stop-color="#FFC20E"/><stop offset=".05" stop-color="#FFC20E"/><stop offset=".95" stop-color="#D78817"/><stop offset="1" stop-color="#D78817"/></linearGradient><path clip-path="url(#aJ)" fill="url(#aK)" d="M14.645 54.735l-3.252-4.443 4.25-3.11 3.252 4.443"/></g><g><defs><path id="aL" d="M-14.272-13.996h102v115h-102z"/></defs><clipPath id="aM"><use xlink:href="#aL" overflow="visible"/></clipPath><path clip-path="url(#aM)" fill="#D78817" d="M28.773 30.137V71.65l.45-.45V30.383"/><path clip-path="url(#aM)" fill="#BF7312" d="M35.94 52.572V33.946l-.45-.297v19.243l.45-.32zm0 6.02v13.06l-.45-.45v-13.19l.45.58zM26.46 56.2V28.34l-.45.45v27.17"/></g></svg>